<?xml version="1.0" standalone="no"?>
<!DOCTYPE svg PUBLIC "-//W3C//DTD SVG 20010904//EN"
 "http://www.w3.org/TR/2001/REC-SVG-20010904/DTD/svg10.dtd">
<svg version="1.0" xmlns="http://www.w3.org/2000/svg"
 width="512.000000pt" height="512.000000pt" viewBox="0 0 512.000000 512.000000"
 preserveAspectRatio="xMidYMid meet">
<metadata>
Created by potrace 1.16, written by Peter Selinger 2001-2019
</metadata>
<g transform="translate(0.000000,512.000000) scale(0.100000,-0.100000)"
fill="#000000" stroke="none">
<path d="M0 2560 l0 -2560 2560 0 2560 0 0 2560 0 2560 -2560 0 -2560 0 0
-2560z m3961 1659 c15 -15 20 -30 17 -52 -4 -28 -345 -522 -1514 -2188 l-53
-75 66 -95 c36 -52 71 -100 77 -107 11 -11 38 23 148 180 806 1153 1624 2317
1641 2336 20 22 24 22 274 22 244 0 254 -1 274 -21 15 -15 20 -30 17 -52 -3
-23 -342 -516 -1137 -1652 -623 -891 -1144 -1630 -1157 -1642 -32 -29 -75 -29
-102 0 -11 12 -532 753 -1158 1647 -831 1187 -1137 1632 -1137 1652 0 15 8 37
18 48 18 20 27 20 1862 20 l1843 0 21 -21z"/>
<path d="M1140 3725 c0 -13 953 -1366 961 -1363 6 2 879 1242 946 1345 l15 23
-961 0 c-528 0 -961 -2 -961 -5z"/>
</g>
</svg>
